HIERARCHY
ROOT Hips
{
	OFFSET 0.000000 0.000000 0.000000
	CHANNELS 6 Xposition Yposition Zposition Zrotation Yrotation Xrotation 
	JOINT LHipJoint
	{
		OFFSET 0.000000 0.000000 0.000000
		CHANNELS 3 Zrotation Yrotation Xrotation
		JOINT LeftUpLeg
		{
			OFFSET 1.363060 -1.794630 0.839290
			CHANNELS 3 Zrotation Yrotation Xrotation
			JOINT LeftLeg
			{
				OFFSET 2.448110 -6.726130 0.000000
				CHANNELS 3 Zrotation Yrotation Xrotation
				JOINT LeftFoot
				{
					OFFSET 2.562200 -7.039590 0.000000
					CHANNELS 3 Zrotation Yrotation Xrotation
					JOINT LeftToeBase
					{
						OFFSET 0.157640 -0.433110 2.322550
						CHANNELS 3 Zrotation Yrotation Xrotation
						End Site
						{
							OFFSET 0.000000 0.000000 0.000000
						}
					}
				}
			}
		}
	}
	JOINT RHipJoint
	{
		OFFSET 0.000000 0.000000 0.000000
		CHANNELS 3 Zrotation Yrotation Xrotation
		JOINT RightUpLeg
		{
			OFFSET -1.305520 -1.794630 0.839290
			CHANNELS 3 Zrotation Yrotation Xrotation
			JOINT RightLeg
			{
				OFFSET -2.542530 -6.985550 0.000000
				CHANNELS 3 Zrotation Yrotation Xrotation
				JOINT RightFoot
				{
					OFFSET -2.568260 -7.056230 0.000000
					CHANNELS 3 Zrotation Yrotation Xrotation
					JOINT RightToeBase
					{
						OFFSET -0.164730 -0.452590 2.363150
						CHANNELS 3 Zrotation Yrotation Xrotation
						End Site
						{
							OFFSET 0.000000 0.000000 0.000000
						}
					}
				}
			}
		}
	}
}
MOTION
Frames: 22
Frame Time: 0.008333
-11.850974 16.965640 -1.245374 176.488429 84.223287 177.834840 -10.952211 5.180545 0.429048 -0.369900 7.363626 12.361282 -0.662821 2.009134 22.157578 0.493161 -0.260328 12.019000 -0.212600 0.000000 -77.614200 9.166292 -0.711414 1.118835 10.887750 -4.090264 -25.274925 1.828767 -0.974968 21.771569 -1.854190 -8.707652 -3.933690 -1.197900 0.000000 -25.396400
-11.665510 16.981646 -1.217054 177.447284 84.160247 178.743922 -11.053939 5.230291 0.439112 0.169012 7.606986 11.506905 -0.490100 2.126155 24.156411 0.590144 -0.424103 13.995613 -0.353800 -0.000000 -77.265600 9.133247 -0.783040 1.144448 11.074494 -3.861745 -24.728399 1.811392 -1.001514 22.267681 -1.909116 -8.867632 -4.518464 -1.105100 -0.000000 -22.768000
-11.482561 16.997616 -1.188631 178.316794 84.114173 179.573296 -11.156857 5.260873 0.442632 0.665445 7.889639 10.538744 -0.318454 2.227333 26.272881 0.713405 -0.412417 15.914716 -0.449400 -0.000000 -75.942200 9.100778 -0.852009 1.163662 11.273605 -3.675947 -24.169050 1.803498 -1.020849 22.702806 -1.955459 -8.973150 -5.133153 -0.997800 0.000000 -20.370200
-11.302460 17.013157 -1.160487 179.210050 84.078902 -179.563421 -11.263368 5.269816 0.437359 1.131104 8.212382 9.450713 -0.152725 2.313416 28.506148 0.858878 -0.194040 17.712256 -0.468100 -0.000001 -73.642500 9.064832 -0.918744 1.176330 11.495690 -3.527178 -23.582174 1.805772 -1.030206 23.056013 -1.997094 -9.043017 -5.780481 -0.878700 -0.000000 -18.145600
-11.125462 17.027941 -1.132490 -179.994432 84.050726 -178.787856 -11.365671 5.255286 0.423423 1.526790 8.544157 8.266529 0.000518 2.386581 30.827360 1.020606 0.300291 19.277311 -0.359500 -0.000000 -70.344699 9.029337 -0.981839 1.181070 11.721340 -3.422694 -22.968068 1.815673 -1.030449 23.327276 -2.034279 -9.080149 -6.448030 -0.751000 0.000001 -16.232600
-10.951708 17.041730 -1.104876 -179.276681 84.025246 -178.079880 -11.462425 5.217508 0.399638 1.847516 8.875307 6.993089 0.138260 2.451038 33.215628 1.191635 1.096020 20.526767 -0.093700 -0.000000 -66.197801 8.993114 -1.041310 1.178815 11.948864 -3.355803 -22.322718 1.832301 -1.020887 23.509836 -2.070041 -9.099195 -7.134271 -0.617100 -0.000000 -14.608700
-10.781246 17.054435 -1.077684 -178.674051 84.000779 -177.477378 -11.550460 5.157884 0.365297 2.079274 9.192666 5.645063 0.259524 2.511563 35.639038 1.365708 2.202940 21.389353 0.342800 -0.000000 -61.462800 8.957240 -1.096724 1.170458 12.168845 -3.320130 -21.647462 1.853784 -1.002227 23.605989 -2.106309 -9.110164 -7.833774 -0.478900 -0.000000 -13.279300
-10.613915 17.066102 -1.051207 -178.124549 83.972506 -176.915908 -11.630780 5.078854 0.321851 2.227266 9.485992 4.226201 0.365746 2.572498 38.069492 1.537980 3.592710 21.818467 0.932700 0.000000 -56.463600 8.918861 -1.148576 1.158725 12.386316 -3.301608 -20.943000 1.879568 -0.973765 23.610152 -2.146675 -9.130529 -8.544039 -0.338100 -0.000000 -12.153200
-10.449630 17.076857 -1.025316 -177.713664 83.944405 -176.482673 -11.699548 4.983134 0.269907 2.273912 9.743202 2.758131 0.458971 2.636649 40.464126 1.705408 5.221562 21.797942 1.638600 -0.000000 -51.568500 8.881646 -1.196124 1.144354 12.585803 -3.293517 -20.216901 1.906881 -0.938094 23.537915 -2.191004 -9.161937 -9.254622 -0.196099 -0.000000 -11.249499
-10.288153 17.086989 -1.000141 -177.426693 83.917440 -176.161974 -11.757010 4.873760 0.211819 2.221245 9.956841 1.249962 0.541519 2.705356 42.790631 1.865739 7.013046 21.332187 2.397900 0.000001 -47.038400 8.845409 -1.239459 1.129560 12.766363 -3.283443 -19.474535 1.934388 -0.896121 23.394798 -2.240451 -9.212237 -9.957055 -0.054500 0.000000 -10.503301
-10.129202 17.096795 -0.975689 -177.266663 83.894462 -175.956853 -11.803047 4.753659 0.150342 2.070653 10.121308 -0.287258 0.615006 2.778217 45.016151 2.017460 8.880608 20.448836 3.139799 0.000000 -43.079100 8.810927 -1.278727 1.116194 12.925431 -3.261253 -18.721085 1.960547 -0.849232 23.189168 -2.295103 -9.285374 -10.640073 0.084899 -0.000001 -9.871600
-9.972479 17.106569 -0.951935 -177.234804 83.879346 -175.869074 -11.837796 4.625769 0.087382 1.828117 10.237797 -1.843569 0.679671 2.853996 47.113366 2.157979 10.729409 19.176782 3.790600 -0.000001 -39.650900 8.779041 -1.314190 1.105807 13.061370 -3.218742 -17.961587 1.984071 -0.798919 22.930247 -2.354092 -9.381438 -11.291360 0.220300 0.000001 -9.325800
-9.817670 17.116570 -0.928882 -177.322811 83.875652 -175.891301 -11.861718 4.492463 0.025984 1.501067 10.305506 -3.408210 0.734928 2.929980 49.052567 2.285920 12.477633 17.577396 4.293200 0.000000 -36.831000 8.750129 -1.346309 1.099367 13.174882 -3.150368 -17.197750 2.004060 -0.746307 22.624056 -2.416257 -9.499671 -11.898340 0.349400 0.000000 -8.843599
-9.664420 17.127005 -0.906487 -177.521173 83.886693 -176.015418 -11.875270 4.356084 -0.031953 1.100539 10.329265 -4.971426 0.778876 3.003606 50.811387 2.398248 14.049837 15.701550 4.603300 0.000000 -34.433600 8.724374 -1.375676 1.097373 13.267732 -3.053677 -16.429555 2.020106 -0.692275 22.275152 -2.479872 -9.636244 -12.450384 0.470000 0.000000 -8.417501
-9.512437 17.137907 -0.884690 -177.820239 83.914981 -176.233696 -11.878816 4.218337 -0.084135 0.637622 10.311426 -6.521954 0.809254 3.071814 52.367711 2.492952 15.393335 13.623564 4.704500 -0.000000 -32.400800 8.701812 -1.402782 1.099269 13.342225 -2.930222 -15.654107 2.032157 -0.637315 21.885023 -2.543131 -9.786578 -12.938923 0.580101 -0.000000 -8.048300
-9.361428 17.149282 -0.863404 -178.217804 83.962551 -176.547070 -11.872352 4.080663 -0.128666 0.122661 10.255005 -8.048269 0.823656 3.131844 53.703701 2.568183 16.475342 11.421308 4.604300 0.000000 -30.637400 8.682724 -1.427995 1.103758 13.400003 -2.785359 -14.866330 2.040486 -0.581652 21.453593 -2.603956 -9.943797 -13.358818 0.678101 0.000000 -7.744500
-9.211035 17.160956 -0.842581 -178.692529 84.028490 -176.934337 -11.856552 3.943901 -0.163156 -0.431596 10.161358 -9.544992 0.820376 3.181433 54.810651 2.622763 17.283132 9.172291 4.330800 -0.000000 -29.089500 8.666178 -1.451829 1.110009 13.446093 -2.624994 -14.062284 2.045931 -0.524661 20.976797 -2.661213 -10.103545 -13.709612 0.763000 0.000000 -7.514899
-9.061014 17.172617 -0.822136 -179.245779 84.112924 -177.398610 -11.831337 3.808604 -0.186307 -1.016022 10.033283 -11.005224 0.798612 3.218858 55.682892 2.656679 17.824240 6.955530 3.928700 0.000000 -27.745100 8.652334 -1.474355 1.116309 13.481972 -2.458208 -13.237698 2.049259 -0.465881 20.452489 -2.713463 -10.258774 -13.994850 0.834800 -0.000000 -7.371900
-8.911140 17.184051 -0.802017 -179.888009 84.216213 -177.952677 -11.796375 3.675253 -0.198028 -1.623961 9.876374 -12.424072 0.758380 3.243392 56.322229 2.670766 18.120921 4.829146 3.445800 0.000000 -26.466301 8.641945 -1.495488 1.120534 13.506746 -2.296896 -12.389195 2.051243 -0.404892 19.879837 -2.759083 -10.400646 -14.220702 0.894000 0.000000 -7.321800
-8.761165 17.194881 -0.782185 179.382752 84.337087 -178.593790 -11.751891 3.543837 -0.197652 -2.248078 9.695013 -13.802969 0.701043 3.254659 56.737187 2.667439 18.208449 2.842087 2.929300 -0.000000 -25.211900 8.634959 -1.515428 1.122113 13.521723 -2.149720 -11.517039 2.052805 -0.340843 19.257296 -2.797417 -10.523351 -14.396375 0.941900 0.000001 -7.367300
-8.610941 17.204793 -0.762633 178.559913 84.475223 -179.327820 -11.697899 3.414074 -0.185511 -2.883843 9.495351 -15.145182 0.628758 3.252807 56.939446 2.650483 18.131514 1.029511 2.419600 0.000000 -23.967200 8.631822 -1.534106 1.120469 13.526343 -2.024796 -10.624606 2.054671 -0.273232 18.587102 -2.827733 -10.620180 -14.532384 0.980100 0.000000 -7.505600
-8.460263 17.213453 -0.743372 177.636666 84.631049 179.840192 -11.634443 3.285636 -0.162369 -3.527400 9.284527 -16.455584 0.543997 3.238329 56.942944 2.624370 17.937189 -0.592732 1.944300 0.000000 -22.710000 8.632999 -1.551614 1.115600 13.519761 -1.928583 -9.717868 2.057492 -0.201767 17.873812 -2.849270 -10.684253 -14.638932 1.010400 0.000000 -7.729400
